<?xml version="1.0" encoding="utf-8"?>
<!-- Generator: Adobe Illustrator 24.3.0, SVG Export Plug-In . SVG Version: 6.00 Build 0)  -->
<svg version="1.1" id="レイヤー_1" xmlns="http://www.w3.org/2000/svg" xmlns:xlink="http://www.w3.org/1999/xlink" x="0px"
	 y="0px" viewBox="0 0 227.3 49.8" style="enable-background:new 0 0 227.3 49.8;" xml:space="preserve">
<style type="text/css">
	.st0{fill:none;}
	.st1{fill:#FF0000;}
	.st2{fill:none;stroke:#FF0000;stroke-width:2.8346;stroke-miterlimit:10;}
</style>
<g>
	<g>
		<rect x="25.5" y="9.9" class="st0" width="176.4" height="30"/>
		<path class="st1" d="M34.8,20.2c-0.2-1.1-0.5-1.9-1-2.9c1.2,0,1.8,0,2.5,0c6,0,10.6-0.4,13.1-1.2l2,2.9c-0.9,0.2-2.3,0.4-3.1,0.5
			L50,20c-0.7,1.3-0.7,1.4-1,1.8h1c1.2,0,1.6,0,2.2-0.1c0,0.6-0.1,1-0.1,1.9v1.7c0,0.7,0,1.2,0.1,1.8h-3l0.5,0.6
			c-0.4,0.4-0.4,0.4-1,1.1c-1.2,1.3-1.8,1.9-3,2.8c2,0.6,4,0.9,6.8,1.1c-0.7,1.1-1.1,2.1-1.4,3.3c-3.6-0.4-5.8-1-8.6-2.4
			c-2.4,1.2-4.5,1.9-7.9,2.5c-0.4-1.3-0.8-2.1-1.6-3.1c2.5-0.2,4.4-0.6,6.4-1.3c-0.9-0.7-1.6-1.3-2.7-2.4l2.4-1h-1
			c-0.8,0-1.5,0-2.2,0.1v-1.3h-2.7c0.1-0.5,0.1-1.1,0.1-1.8v-1.7c0-0.8,0-1.2-0.1-2c0.7,0.1,1,0.1,2.1,0.1h1.1
			c-0.2-0.6-0.4-1.1-0.7-1.6H34.8z M36.6,25.6c0.6,0,1,0,1.6,0h7.9c0.8,0,1.4,0,1.8-0.1l1.1,1.3v-2.1H36.6V25.6z M41.4,21.9
			c-0.2-0.7-0.4-1.1-0.6-1.7c-0.5,0-0.6,0-1.6,0.1c0.3,0.7,0.4,1.1,0.7,1.7H41.4z M40,28.4c0.8,0.8,1.4,1.2,2.6,1.9
			c0.9-0.6,1.5-1,2.4-1.9H40z M44,19.9c0.2,0.7,0.4,1.1,0.6,1.9h1c0.4-0.7,0.7-1.5,1-2.1L44,19.9z"/>
		<path class="st1" d="M61.4,19.6c0.5,0.1,0.9,0.1,1.7,0.1h4.8c0.9,0,1.2,0,1.7-0.1v2.8c-0.5-0.1-0.6-0.1-1.7-0.1h-4.9
			c-0.8,0-1.2,0-1.7,0.1V19.6z M61.9,36c0.1-0.7,0.1-1.4,0.1-2v-3.4c0-0.6,0-1-0.1-1.6c0.5,0,0.9,0.1,1.6,0.1h4.4c0.8,0,1,0,1.3-0.1
			c0,0.4-0.1,0.8-0.1,1.4v3.5c0,0.7,0,1.2,0.1,1.8h-2.9v-0.6h-1.4V36H61.9z M62.1,16.6c0.6,0.1,1,0.1,1.9,0.1h3.2
			c0.9,0,1.3,0,1.9-0.1v2.5c-0.6,0-1-0.1-1.9-0.1H64c-0.9,0-1.3,0-1.9,0.1V16.6z M62.1,23c0.4,0,0.6,0,1.3,0h4.5c0.7,0,0.9,0,1.2,0
			v2.4c-0.4,0-0.6,0-1.2,0h-4.5c-0.7,0-0.9,0-1.3,0V23z M62.1,26c0.4,0,0.6,0,1.3,0h4.5c0.7,0,0.9,0,1.2,0v2.4c-0.4,0-0.6,0-1.3,0
			h-4.5c-0.6,0-0.8,0-1.2,0V26z M64.9,32.7h1.5v-1.4h-1.5V32.7z M72.7,21.5c-1,0.2-1.2,0.3-2,0.4C70.3,20.7,70,20,69.4,19
			c2.9-0.2,7.3-1.5,9.2-2.7l2.2,2.7c-2.1,0.9-2.8,1.1-4.9,1.7v3.4l2.7-0.2c1.2-0.1,1.7-0.1,2.4-0.3l0.2,3.3c-0.3,0-0.4,0-0.7,0
			c-0.5,0-1.1,0-1.6,0.1l-2.9,0.2v5.2c0,0.4,0.1,0.4,0.9,0.4c0.6,0,1-0.1,1.2-0.3c0.2-0.3,0.3-1.4,0.3-3.3c1,0.6,1.8,0.9,3,1.1
			c-0.1,2.9-0.4,4.1-1.1,4.7c-0.5,0.5-1.6,0.7-3.7,0.7c-1.5,0-2.2-0.1-2.7-0.4c-0.6-0.3-0.9-0.8-0.9-1.7v-6.3l-0.6,0
			c-1.2,0.1-1.8,0.1-2.5,0.3l-0.2-3.3c0.3,0,0.4,0,0.6,0c0.5,0,1.4,0,2-0.1l0.6,0V21.5z"/>
		<path class="st1" d="M92.8,24.7c-1.1,0-1.9,0-2.7,0.1v-3.1c0.7,0.1,1.5,0.1,2.7,0.1h4.3v-1.1h-2.9c-1.1,0-1.8,0-2.4,0.1v-3
			c0.6,0.1,1.5,0.1,2.6,0.1h2.8c0-0.8,0-1.2-0.1-1.7h3.5c-0.1,0.5-0.1,0.9-0.1,1.7h1c1,0,1.8,0,2.4-0.1v1.8c0.8-0.9,1.8-2.2,2.2-3
			l2.9,1.9c-0.3,0.3-0.4,0.4-0.9,1c-0.8,0.9-1.2,1.4-2.1,2.2h1c1.1,0,1.8,0,2.5-0.1v3.1c-0.7-0.1-1.6-0.1-2.8-0.1h-4.6
			c-0.4,0.3-0.6,0.4-1.3,0.9c0.6,0,0.6,0,1.3,0h3.1c1,0,1.6,0,2.2-0.1c-0.1,0.6-0.1,1.2-0.1,2.3v5.6c0,1.1,0,2,0.1,2.5h-3.3v-0.8H97
			V36h-3.3c0.1-0.8,0.1-1.6,0.1-2.5v-3.3c0-0.1,0-0.2,0-0.5c-1.7,0.8-1.7,0.8-2.5,1.1c-0.5-1.3-0.9-1.9-1.7-2.9
			c2.8-0.8,5.3-1.8,7.6-3.1H92.8z M97,29h6.7v-0.9H97V29z M97,32.5h6.7v-0.9H97V32.5z M101.4,21.9c0.5-0.4,0.7-0.6,1.2-1
			c-0.4,0-0.6,0-1,0h-1.3v1.1H101.4z"/>
		<path class="st1" d="M134.9,22.4c-0.2,0.4-0.3,0.6-0.4,0.8h1.2c0.9,0,1.1,0,1.6-0.1v2.6c-0.4,0-0.9-0.1-1.5-0.1h-1.5v0.9h1.1
			c0.9,0,1.2,0,1.6-0.1v2.3c-0.4,0-0.8-0.1-1.6-0.1h-1.1v0.9h1.1c0.9,0,1.2,0,1.6-0.1v2.3c-0.5,0-0.8-0.1-1.6-0.1h-1.1v0.9h1.5
			c1,0,1.5,0,2-0.1v2.8c-0.7-0.1-1.3-0.1-2.1-0.1h-6v0.9h-3.1c0.1-0.8,0.1-1.3,0.1-2.5v-4.8c0-0.5,0-0.8,0-0.9
			c-0.2,0.3-0.3,0.4-0.5,0.7c-0.2-0.7-0.3-0.9-0.5-1.5v6.2c0,0.9,0,1.2,0,1.5h-2.6V34H122v1.7h-2.8c0.1-0.7,0.1-1.5,0.1-2.3v-3.8
			c0-0.4,0-0.6,0-0.9c-0.1,0.1-0.1,0.2-0.2,0.3c-0.2,0.3-0.2,0.4-0.4,0.5l-0.2,0.2c0,0-0.1,0.1-0.1,0.1c-0.2-1.7-0.4-2.7-0.9-4
			c1.3-1.5,2.4-3.8,2.7-6h-0.2c-0.8,0-1.2,0-1.8,0.1v-3.1c0.7,0.1,1.3,0.1,2.2,0.1h2.6c1,0,1.5,0,2.2-0.1v1c0.2,0,0.3,0,0.6,0h3.2
			c0.2-0.7,0.3-1.2,0.3-1.8l3.3,0.3c0,0.2-0.2,0.7-0.4,1.5h3.5c0.7,0,1.2,0,1.6-0.1c-0.1,0.4-0.1,0.8-0.1,1.7v1.4
			c0,0.7,0,1.1,0.1,1.6H134.9z M121.9,31.1h0.9v-4.6h-0.9V31.1z M127.4,20.6v1.9h-2.7c0-0.5,0.1-1,0.1-1.4v-1.3c-0.2,0-0.2,0-0.4,0
			h-1c-0.3,1.4-0.5,2.4-1.1,3.9h1.9c0.5,0,0.9,0,1.2-0.1c0,0.4,0,0.9,0,1.4v0.2c0.8-0.7,1.5-1.6,2.1-2.7c0.4-0.6,0.5-0.9,0.9-1.9
			H127.4z M131.2,26.6v-0.9h-1.7v0.9H131.2z M129.5,29.6h1.7v-0.9h-1.7V29.6z M129.5,32.7h1.7v-0.9h-1.7V32.7z M134.5,20.6h-3
			c-0.4,1.1-0.7,1.5-1.3,2.6h1.3c0.3-0.6,0.6-1.3,0.8-2.1l2.2,0.4V20.6z"/>
		<path class="st1" d="M155,25.3h-3.7c-1,0-1.6,0-2.2,0.1v-1.8h-2.4c0.1-0.6,0.1-1,0.1-1.8v-2c0-0.5,0-1.1-0.1-1.7
			c0.8,0.1,1.6,0.1,2.5,0.1h5.1v-0.4c0-0.5,0-1-0.1-1.4h3.5c-0.1,0.5-0.1,0.8-0.1,1.3v0.4h5.4c0.9,0,1.7,0,2.5-0.1
			c-0.1,0.6-0.1,1-0.1,1.7v2c0,0.7,0,1.2,0.1,1.8h-2.3v1.8c-0.6-0.1-1.2-0.1-2.2-0.1h-2.9v2h3.7c1.1,0,1.5,0,2.2-0.1v3
			c-0.6-0.1-1.1-0.1-2.2-0.1h-3.7v2.5c0.8,0.1,1.4,0.1,2.1,0.1c1.8,0,3.4-0.1,5.9-0.3c-0.4,1.3-0.5,2-0.7,3.3
			c-2.2,0.1-3,0.1-4.2,0.1c-3.4,0-5.4-0.2-6.8-0.8c-1.3-0.5-2.3-1.3-3.2-2.4c-0.8,1.5-1.4,2.4-2.6,3.6c-0.7-1-1.4-1.6-2.5-2.5
			c1.8-1.8,2.8-3.3,3.4-5.5c0.2-0.7,0.5-1.7,0.5-2.1l3.2,0.6c-0.1,0.5-0.2,0.9-0.3,1c-0.1,0.5-0.3,1.1-0.6,2
			c0.5,0.7,0.7,0.9,1.1,1.3c0.5,0.4,0.9,0.7,1.5,0.9V25.3z M162.4,21.1H150v1.3c0.5,0,0.8,0,1.4,0h9.7c0.6,0,0.9,0,1.4,0V21.1z"/>
		<path class="st1" d="M176.3,21.6c1.4,0.8,2.3,1.4,3.4,2.2c1.6-0.1,2.9-0.3,4.4-0.8c-1.1-0.8-1.7-1.4-2.4-2.4c-0.6,0-0.9,0-1.4,0.1
			v-1.2l-1.5,2c-1.3-1.2-2.1-1.8-3.7-2.8l2-2.4c1.3,0.8,2.1,1.4,3.2,2.3v-0.8c0.7,0.1,1.3,0.1,2.5,0.1h2.4v-0.2c0-0.5,0-0.9-0.1-1.3
			h3.4c-0.1,0.4-0.1,0.8-0.1,1.3v0.3h3.3c1.2,0,1.9,0,2.5-0.1v3c-0.6-0.1-0.9-0.1-2.1-0.1c-0.7,1-1.4,1.7-2.3,2.4
			c1.7,0.5,3.1,0.7,4.9,0.8c-0.6,1-0.9,1.7-1.2,2.9c-0.7-0.1-0.9-0.2-1.4-0.3v6.9c0,1.2,0,1.9,0.1,2.6h-3.4c0.1-0.7,0.1-1.5,0.1-2.6
			v-0.9h-5.4c-0.5,1.4-1.2,2.5-2.4,3.7c-0.7-0.9-1.4-1.5-2.6-2.3c2.1-1.8,2.6-3.3,2.7-7.4c-0.4,0.1-0.5,0.1-1,0.2
			c-0.2-0.8-0.3-1.2-0.6-2l-1.3,2c-1.4-1.2-2.1-1.7-3.8-2.7L176.3,21.6z M179.9,29c-0.8,2.9-1.4,4.6-2.3,6.5
			c-0.1,0.2-0.1,0.2-0.3,0.6l-2.7-2.4c1-1.1,1.9-3.4,2.8-6.5L179.9,29z M184.3,28.8c-0.1,0.5-0.1,0.6-0.1,1h4.9v-1H184.3z M189,26.2
			v-0.5c-0.8-0.3-1.3-0.5-2.1-0.9c-0.9,0.4-1.5,0.6-2.5,0.9v0.5H189z M185.1,20.6c0.5,0.5,0.9,0.8,1.7,1.3c0.7-0.4,1.1-0.8,1.6-1.3
			H185.1z"/>
	</g>
	<rect x="1.4" y="1.4" class="st2" width="224.5" height="47"/>
</g>
<g>
</g>
<g>
</g>
<g>
</g>
<g>
</g>
<g>
</g>
<g>
</g>
<g>
</g>
<g>
</g>
<g>
</g>
<g>
</g>
<g>
</g>
<g>
</g>
<g>
</g>
<g>
</g>
<g>
</g>
</svg>
